<?xml version="1.0" standalone="no"?>
<!DOCTYPE svg PUBLIC "-//W3C//DTD SVG 20010904//EN"
 "http://www.w3.org/TR/2001/REC-SVG-20010904/DTD/svg10.dtd">
<svg version="1.0" xmlns="http://www.w3.org/2000/svg"
 width="512.000000pt" height="512.000000pt" viewBox="0 0 512.000000 512.000000"
 preserveAspectRatio="xMidYMid meet">

<g transform="translate(0.000000,512.000000) scale(0.100000,-0.100000)"
fill="#000000" stroke="none">
<path d="M3165 4611 c-16 -4 -476 -180 -1021 -390 l-991 -381 -134 0 c-220 0
-332 -41 -460 -169 -80 -81 -127 -160 -154 -261 -22 -82 -22 -2428 0 -2510 53
-200 218 -363 420 -415 52 -13 250 -15 1572 -15 1052 0 1528 3 1565 11 161 33
315 153 388 303 62 125 70 179 70 502 l0 281 63 5 c102 9 184 63 227 153 19
39 20 62 20 430 0 368 -1 391 -20 430 -43 90 -125 144 -226 153 l-63 5 -3 311
c-3 309 -4 311 -31 389 -15 43 -43 102 -61 131 -102 159 -290 266 -469 266
l-52 0 -160 321 c-171 343 -199 385 -286 427 -50 24 -147 36 -194 23z m142
-150 c47 -29 60 -52 207 -348 l135 -273 -1052 1 c-579 0 -1047 3 -1042 5 6 3
375 146 820 319 862 333 867 335 932 296z m603 -762 c92 -15 179 -60 243 -128
60 -63 87 -108 111 -190 13 -45 16 -107 16 -348 l0 -293 -408 0 c-376 0 -415
-2 -487 -20 -202 -52 -361 -208 -420 -414 -22 -76 -23 -212 -2 -293 50 -191
200 -353 385 -415 65 -22 82 -23 500 -26 l432 -3 0 -293 c0 -240 -3 -302 -16
-347 -24 -82 -51 -127 -111 -190 -64 -68 -151 -113 -243 -128 -86 -14 -2930
-15 -3015 -1 -179 29 -326 170 -364 348 -16 75 -16 2319 0 2394 28 133 114
245 233 303 40 20 94 40 122 44 76 13 2945 13 3024 0z m634 -1120 c55 -44 56
-49 56 -426 0 -327 -1 -350 -20 -380 -40 -67 -10 -64 -617 -61 l-549 3 -75 37
c-373 184 -332 708 66 834 30 10 172 13 576 13 529 1 537 1 563 -20z"/>
<path d="M3497 2426 c-183 -66 -248 -307 -121 -455 57 -66 114 -94 204 -99 67
-4 85 -1 131 20 227 104 229 419 4 524 -58 27 -156 32 -218 10z m182 -143 c48
-37 66 -71 66 -128 0 -80 -53 -142 -131 -151 -51 -7 -121 29 -148 75 -43 75
-14 169 64 209 52 27 108 25 149 -5z"/>
</g>
</svg>
